<?xml version="1.0" standalone="no"?>
<!DOCTYPE svg PUBLIC "-//W3C//DTD SVG 20010904//EN"
 "http://www.w3.org/TR/2001/REC-SVG-20010904/DTD/svg10.dtd">
<svg version="1.0" xmlns="http://www.w3.org/2000/svg"
 width="512.000000pt" height="512.000000pt" viewBox="0 0 512.000000 512.000000"
 preserveAspectRatio="xMidYMid meet">
<metadata>
Created by potrace 1.11, written by Peter Selinger 2001-2013
</metadata>
<g transform="translate(0.000000,512.000000) scale(0.100000,-0.100000)"
fill="#000000" stroke="none">
<path d="M925 4692 c-20 -3 -20 -10 -20 -2133 l0 -2130 975 4 c536 2 991 7
1010 10 31 7 63 12 195 34 104 17 388 120 490 178 22 12 57 32 79 44 303 172
606 489 784 822 94 176 183 437 207 614 3 22 8 47 10 55 20 74 28 542 12 660
-28 206 -78 414 -126 525 -158 367 -293 561 -562 811 -271 251 -671 438 -1024
480 -27 4 -53 8 -56 10 -21 12 -306 17 -1079 18 -481 0 -884 0 -895 -2z m1855
-946 c30 -4 62 -9 70 -11 8 -2 29 -7 46 -9 63 -11 192 -59 271 -101 324 -172
530 -497 568 -900 12 -122 7 -300 -11 -407 -2 -16 -6 -43 -9 -60 -44 -269
-228 -555 -454 -705 -104 -69 -256 -134 -366 -157 -16 -3 -43 -9 -60 -13 -16
-3 -238 -8 -492 -10 l-463 -4 0 1189 c0 654 2 1191 4 1193 8 7 837 3 896 -5z"/>
</g>
</svg>
